<?xml version="1.0" encoding="iso-8859-1"?>
<!-- Generator: Adobe Illustrator 18.0.0, SVG Export Plug-In . SVG Version: 6.00 Build 0)  -->
<!DOCTYPE svg PUBLIC "-//W3C//DTD SVG 1.1//EN" "http://www.w3.org/Graphics/SVG/1.1/DTD/svg11.dtd">
<svg version="1.1" id="Capa_1" xmlns="http://www.w3.org/2000/svg" xmlns:xlink="http://www.w3.org/1999/xlink" x="0px" y="0px"
	 viewBox="0 0 341.574 341.574" style="enable-background:new 0 0 341.574 341.574;" xml:space="preserve">
<g>
	<path d="M334.074,72.691h-13.253V56.75c0-3.128-1.94-5.927-4.87-7.023c-64.126-24.016-109.694-28.938-135.436-14.632
		c-4.168,2.315-7.322,4.896-9.726,7.419c-2.405-2.524-5.563-5.104-9.729-7.419c-25.742-14.307-71.312-9.382-135.438,14.632
		c-2.93,1.097-4.87,3.896-4.87,7.023v15.941H7.5c-4.143,0-7.5,3.357-7.5,7.5v212.351c0,4.143,3.357,7.5,7.5,7.5h134.77v6.928
		c0,4.143,3.357,7.5,7.5,7.5h42.035c4.143,0,7.5-3.357,7.5-7.5v-6.928h134.77c4.143,0,7.5-3.357,7.5-7.5V80.191
		C341.574,76.049,338.217,72.691,334.074,72.691z M178.288,57.858c0.618-1.602,2.967-6.27,10.34-10.096
		c12.149-6.307,43.407-12.656,117.193,14.212v190.913c-58.804-20.79-100.943-24.496-125.307-10.956
		c-0.778,0.433-1.517,0.876-2.227,1.325V57.858z M35.753,61.975c73.784-26.868,105.046-20.52,117.195-14.212
		c7.373,3.826,9.722,8.495,10.34,10.096v185.398c-0.71-0.449-1.448-0.893-2.227-1.325c-24.364-13.54-66.512-9.822-125.309,10.963
		V61.975z M142.27,283.721v1.321H15V87.691h5.753v175.895c0,4.143,3.357,7.5,7.5,7.5c0.955,0,1.865-0.186,2.706-0.512
		c-0.003,0.004-0.005,0.007-0.008,0.01c77.235-28.908,109.587-22.425,121.998-15.984c4.354,2.26,6.95,4.811,8.478,6.852
		C150.287,264.662,142.27,273.43,142.27,283.721z M184.305,299.47H157.27v-15.749c0-4.059,5.552-8.58,13.518-8.58
		c7.966,0,13.518,4.522,13.518,8.58V299.47z M326.574,285.042h-127.27v-1.321c0-10.291-8.02-19.055-19.159-22.265
		c1.527-2.043,4.124-4.596,8.481-6.856c12.406-6.442,44.748-12.925,121.95,15.969c0.038,0.014,1.522,0.52,2.744,0.518
		c4.143-0.007,7.5-3.357,7.5-7.5V87.691h5.753V285.042z"/>
</g>
<g>
</g>
<g>
</g>
<g>
</g>
<g>
</g>
<g>
</g>
<g>
</g>
<g>
</g>
<g>
</g>
<g>
</g>
<g>
</g>
<g>
</g>
<g>
</g>
<g>
</g>
<g>
</g>
<g>
</g>
</svg>
